<svg width="62" height="68" viewBox="0 0 62 68" fill="none" xmlns="http://www.w3.org/2000/svg">
<path d="M19.1892 56.5369C19.1892 61.741 14.9419 65.9597 9.7027 65.9597C4.46346 65.9597 0.216216 61.741 0.216216 56.5369C0.216216 51.3328 4.46346 47.1141 9.7027 47.1141C14.9419 47.1141 19.1892 51.3328 19.1892 56.5369Z" fill="#262729"/>
<path d="M0.216216 15.2673C-0.27027 19.9787 0.216216 40.6364 0.216216 40.6364C6.05405 33.9679 14.0811 35.5632 17.3649 38.462C20.6486 41.3607 34.8784 60.2069 45.0946 66.0056C55.3108 71.8042 59.8108 63.5895 60.7838 58.7573C61.7568 53.925 60.7838 31.9384 60.7838 13.8177C60.7838 -4.3031 38.527 -5.39103 38.527 15.2673V30.1263C38.527 30.1263 25.9757 11.5706 15.1757 6.93169C4.37568 2.29276 0.702703 10.5559 0.216216 15.2673Z" fill="#262729"/>
</svg>
