<svg width="62" height="68" viewBox="0 0 62 68" fill="none" xmlns="http://www.w3.org/2000/svg">
<path d="M19.9729 56.5369C19.9729 61.741 15.7256 65.9597 10.4864 65.9597C5.24715 65.9597 0.999908 61.741 0.999908 56.5369C0.999908 51.3328 5.24715 47.1141 10.4864 47.1141C15.7256 47.1141 19.9729 51.3328 19.9729 56.5369Z" fill="white"/>
<path d="M0.999908 15.2673C0.513421 19.9787 0.999908 40.6364 0.999908 40.6364C6.83775 33.9679 14.8648 35.5632 18.1486 38.462C21.4323 41.3607 35.6621 60.2069 45.8783 66.0056C56.0945 71.8042 60.5945 63.5895 61.5675 58.7573C62.5405 53.925 61.5675 31.9384 61.5675 13.8177C61.5675 -4.3031 39.3107 -5.39103 39.3107 15.2673V30.1263C39.3107 30.1263 26.7594 11.5706 15.9594 6.93169C5.15937 2.29276 1.48639 10.5559 0.999908 15.2673Z" fill="white"/>
</svg>
